<?xml version="1.0" encoding="UTF-8" standalone="no"?>
<svg
   xmlns:dc="http://purl.org/dc/elements/1.1/"
   xmlns:cc="http://creativecommons.org/ns#"
   xmlns:rdf="http://www.w3.org/1999/02/22-rdf-syntax-ns#"
   xmlns:svg="http://www.w3.org/2000/svg"
   xmlns="http://www.w3.org/2000/svg"
   xmlns:sodipodi="http://sodipodi.sourceforge.net/DTD/sodipodi-0.dtd"
   xmlns:inkscape="http://www.inkscape.org/namespaces/inkscape"
   width="628.20mm"
   height="441.30mm"
   viewBox="0.0 0.0 628.20 441.30"
   version="1.1"
   id="svg85"
   sodipodi:docname="BasedBox.svg"
   inkscape:version="1.0.1 (3bc2e813f5, 2020-09-07)">
  <defs
     id="defs89" />
  <sodipodi:namedview
     pagecolor="#ffffff"
     bordercolor="#666666"
     borderopacity="1"
     objecttolerance="10"
     gridtolerance="10"
     guidetolerance="10"
     inkscape:pageopacity="0"
     inkscape:pageshadow="2"
     inkscape:window-width="3440"
     inkscape:window-height="1370"
     id="namedview87"
     showgrid="false"
     inkscape:zoom="0.26793574"
     inkscape:cx="1225.8595"
     inkscape:cy="1353.474"
     inkscape:window-x="-365"
     inkscape:window-y="-1446"
     inkscape:window-maximized="1"
     inkscape:current-layer="svg85" />
  <!--
BasedBox - Fully closed box on a base


This box is more of a building block than a finished item.
Use a vector graphics program (like Inkscape) to add holes or adjust the base
plate. The width of the "brim" can also be adjusted with the **edge_width**
 parameter in the **Finger Joints Settings**.
 
See ClosedBox for variant without a base.



Created with Boxes.py (https://festi.info/boxes.py)
Creation date: 2023-07-13 08:55:39
Command line (remove spaces between dashes): boxes BasedBox - -FingerJoint_finger=6 - -FingerJoint_space=6 - -x=300 - -y=200
Url: http://www.festi.info/boxes.py/BasedBox?FingerJoint_angle=90.0&FingerJoint_style=rectangular&FingerJoint_surroundingspaces=2.0&FingerJoint_bottom_lip=0.0&FingerJoint_edge_width=1.0&FingerJoint_extra_length=0.0&FingerJoint_finger=6&FingerJoint_play=0.0&FingerJoint_space=6&FingerJoint_width=1.0&x=300&y=200&h=100.0&outside=0&outside=1&thickness=3.0&format=svg&tabs=0.0&qr_code=0&debug=0&labels=0&labels=1&reference=100&inner_corners=loop&burn=0.1&language=de&render=1
Url short: http://www.festi.info/boxes.py/BasedBox?FingerJoint_finger=6&FingerJoint_space=6&x=300&y=200
SettingsUrl: http://www.festi.info/boxes.py/BasedBox?FingerJoint_angle=90.0&FingerJoint_style=rectangular&FingerJoint_surroundingspaces=2.0&FingerJoint_bottom_lip=0.0&FingerJoint_edge_width=1.0&FingerJoint_extra_length=0.0&FingerJoint_finger=6&FingerJoint_play=0.0&FingerJoint_space=6&FingerJoint_width=1.0&x=300&y=200&h=100.0&outside=0&outside=1&thickness=3.0&format=svg&tabs=0.0&qr_code=0&debug=0&labels=0&labels=1&reference=100&inner_corners=loop&burn=0.1&language=de
SettingsUrl short: http://www.festi.info/boxes.py/BasedBox?FingerJoint_finger=6&FingerJoint_space=6&x=300&y=200
-->
  <title
     id="title2">BasedBox</title>
  <metadata
     id="metadata4">
    <rdf:RDF>
      <cc:Work>
        <dc:title>Box - BasedBox</dc:title>
        <dc:date>2023-07-13 08:55:39</dc:date>
        <dc:source>http://www.festi.info/boxes.py/BasedBox?FingerJoint_angle=90.0&amp;FingerJoint_style=rectangular&amp;FingerJoint_surroundingspaces=2.0&amp;FingerJoint_bottom_lip=0.0&amp;FingerJoint_edge_width=1.0&amp;FingerJoint_extra_length=0.0&amp;FingerJoint_finger=6&amp;FingerJoint_play=0.0&amp;FingerJoint_space=6&amp;FingerJoint_width=1.0&amp;x=300&amp;y=200&amp;h=100.0&amp;outside=0&amp;outside=1&amp;thickness=3.0&amp;format=svg&amp;tabs=0.0&amp;qr_code=0&amp;debug=0&amp;labels=0&amp;labels=1&amp;reference=100&amp;inner_corners=loop&amp;burn=0.1&amp;language=de&amp;render=1</dc:source>
        <dc:source>http://www.festi.info/boxes.py/BasedBox?FingerJoint_finger=6&amp;FingerJoint_space=6&amp;x=300&amp;y=200</dc:source>
        <dc:description>Fully closed box on a base

This box is more of a building block than a finished item.
Use a vector graphics program (like Inkscape) to add holes or adjust the base
plate. The width of the &quot;brim&quot; can also be adjusted with the **edge_width**
 parameter in the **Finger Joints Settings**.
 
See ClosedBox for variant without a base.


Created with Boxes.py (https://festi.info/boxes.py)
Command line: boxes BasedBox --FingerJoint_angle=90.0 --FingerJoint_style=rectangular --FingerJoint_surroundingspaces=2.0 --FingerJoint_bottom_lip=0.0 --FingerJoint_edge_width=1.0 --FingerJoint_extra_length=0.0 --FingerJoint_finger=6 --FingerJoint_play=0.0 --FingerJoint_space=6 --FingerJoint_width=1.0 --x=300 --y=200 --h=100.0 --outside=0 --outside=1 --thickness=3.0 --format=svg --tabs=0.0 --qr_code=0 --debug=0 --labels=0 --labels=1 --reference=100 --inner_corners=loop --burn=0.1
Command line short: boxes BasedBox --FingerJoint_finger=6 --FingerJoint_space=6 --x=300 --y=200
Url: http://www.festi.info/boxes.py/BasedBox?FingerJoint_angle=90.0&amp;FingerJoint_style=rectangular&amp;FingerJoint_surroundingspaces=2.0&amp;FingerJoint_bottom_lip=0.0&amp;FingerJoint_edge_width=1.0&amp;FingerJoint_extra_length=0.0&amp;FingerJoint_finger=6&amp;FingerJoint_play=0.0&amp;FingerJoint_space=6&amp;FingerJoint_width=1.0&amp;x=300&amp;y=200&amp;h=100.0&amp;outside=0&amp;outside=1&amp;thickness=3.0&amp;format=svg&amp;tabs=0.0&amp;qr_code=0&amp;debug=0&amp;labels=0&amp;labels=1&amp;reference=100&amp;inner_corners=loop&amp;burn=0.1&amp;language=de&amp;render=1
Url short: http://www.festi.info/boxes.py/BasedBox?FingerJoint_finger=6&amp;FingerJoint_space=6&amp;x=300&amp;y=200
SettingsUrl: http://www.festi.info/boxes.py/BasedBox?FingerJoint_angle=90.0&amp;FingerJoint_style=rectangular&amp;FingerJoint_surroundingspaces=2.0&amp;FingerJoint_bottom_lip=0.0&amp;FingerJoint_edge_width=1.0&amp;FingerJoint_extra_length=0.0&amp;FingerJoint_finger=6&amp;FingerJoint_play=0.0&amp;FingerJoint_space=6&amp;FingerJoint_width=1.0&amp;x=300&amp;y=200&amp;h=100.0&amp;outside=0&amp;outside=1&amp;thickness=3.0&amp;format=svg&amp;tabs=0.0&amp;qr_code=0&amp;debug=0&amp;labels=0&amp;labels=1&amp;reference=100&amp;inner_corners=loop&amp;burn=0.1&amp;language=de
SettingsUrl short: http://www.festi.info/boxes.py/BasedBox?FingerJoint_finger=6&amp;FingerJoint_space=6&amp;x=300&amp;y=200
</dc:description>
        <dc:format>image/svg+xml</dc:format>
        <dc:type
           rdf:resource="http://purl.org/dc/dcmitype/StillImage" />
      </cc:Work>
    </rdf:RDF>
  </metadata>
  <path
     d="m 13.4,416.6 h 29.9 c 0.1,0 0,-0.1 0,0 v 2.9 c 0,0.055 0.045,0.1 0.1,0.1 h 18 c 0.055,0 0.1,-0.045 0.1,-0.1 v -2.9 c 0,-0.1 -0.1,0 0,0 h 17.8 c 0.1,0 0,-0.1 0,0 v 2.9 c 0,0.055 0.045,0.1 0.1,0.1 h 18 c 0.055,0 0.1,-0.045 0.1,-0.1 v -2.9 c 0,-0.1 -0.1,0 0,0 h 17.8 c 0.1,0 0,-0.1 0,0 v 2.9 c 0,0.055 0.045,0.1 0.1,0.1 h 18 c 0.055,0 0.1,-0.045 0.1,-0.1 v -2.9 c 0,-0.1 -0.1,0 0,0 h 17.8 c 0.1,0 0,-0.1 0,0 v 2.9 c 0,0.055 0.045,0.1 0.1,0.1 h 18 c 0.055,0 0.1,-0.045 0.1,-0.1 v -2.9 c 0,-0.1 -0.1,0 0,0 h 17.8 c 0.1,0 0,-0.1 0,0 v 2.9 c 0,0.055 0.045,0.1 0.1,0.1 h 18 c 0.055,0 0.1,-0.045 0.1,-0.1 v -2.9 c 0,-0.1 -0.1,0 0,0 h 17.8 c 0.1,0 0,-0.1 0,0 v 2.9 c 0,0.055 0.045,0.1 0.1,0.1 h 18 c 0.055,0 0.1,-0.045 0.1,-0.1 v -2.9 c 0,-0.1 -0.1,0 0,0 h 17.8 c 0.1,0 0,-0.1 0,0 v 2.9 c 0,0.055 0.045,0.1 0.1,0.1 h 18 c 0.055,0 0.1,-0.045 0.1,-0.1 v -2.9 c 0,-0.1 -0.1,0 0,0 h 29.9 3 c 0.055,0 0.1,-0.045 0.1,-0.1 v -20 c 0,-0.055 -0.045,-0.1 -0.1,-0.1 h -2.9 c -0.1,0 0,0.1 0,0 v -17.8 c 0,-0.1 -0.1,0 0,0 h 2.9 c 0.055,0 0.1,-0.045 0.1,-0.1 v -18 c 0,-0.055 -0.045,-0.1 -0.1,-0.1 h -2.9 c -0.1,0 0,0.1 0,0 v -17.8 c 0,-0.1 -0.1,0 0,0 h 2.9 c 0.055,0 0.1,-0.045 0.1,-0.1 v -20 -3 c 0,-0.055 -0.045,-0.1 -0.1,-0.1 h -3 -30 c -0.055,0 -0.1,0.045 -0.1,0.1 v 2.9 c 0,0.1 0.1,0 0,0 h -17.8 c -0.1,0 0,0.1 0,0 v -2.9 c 0,-0.055 -0.045,-0.1 -0.1,-0.1 h -18 c -0.055,0 -0.1,0.045 -0.1,0.1 v 2.9 c 0,0.1 0.1,0 0,0 h -17.8 c -0.1,0 0,0.1 0,0 v -2.9 c 0,-0.055 -0.045,-0.1 -0.1,-0.1 h -18 c -0.055,0 -0.1,0.045 -0.1,0.1 v 2.9 c 0,0.1 0.1,0 0,0 h -17.8 c -0.1,0 0,0.1 0,0 v -2.9 c 0,-0.055 -0.045,-0.1 -0.1,-0.1 h -18 c -0.055,0 -0.1,0.045 -0.1,0.1 v 2.9 c 0,0.1 0.1,0 0,0 h -17.8 c -0.1,0 0,0.1 0,0 v -2.9 c 0,-0.055 -0.045,-0.1 -0.1,-0.1 h -18 c -0.055,0 -0.1,0.045 -0.1,0.1 v 2.9 c 0,0.1 0.1,0 0,0 h -17.8 c -0.1,0 0,0.1 0,0 v -2.9 c 0,-0.055 -0.045,-0.1 -0.1,-0.1 h -18 c -0.055,0 -0.1,0.045 -0.1,0.1 v 2.9 c 0,0.1 0.1,0 0,0 H 79.5 c -0.1,0 0,0.1 0,0 v -2.9 c 0,-0.055 -0.045,-0.1 -0.1,-0.1 h -18 c -0.055,0 -0.1,0.045 -0.1,0.1 v 2.9 c 0,0.1 0.1,0 0,0 H 43.5 c -0.1,0 0,0.1 0,0 v -2.9 c 0,-0.055 -0.045,-0.1 -0.1,-0.1 h -30 -3 c -0.055,0 -0.1,0.045 -0.1,0.1 v 3 20 c 0,0.055 0.045,0.1 0.1,0.1 h 2.9 c 0.1,0 0,-0.1 0,0 v 17.8 c 0,0.1 0.1,0 0,0 h -2.9 c -0.055,0 -0.1,0.045 -0.1,0.1 v 18 c 0,0.055 0.045,0.1 0.1,0.1 h 2.9 c 0.1,0 0,-0.1 0,0 v 17.8 c 0,0.1 0.1,0 0,0 h -2.9 c -0.055,0 -0.1,0.045 -0.1,0.1 v 20 c 0,0.055 0.045,0.1 0.1,0.1 h 3"
     stroke="#000000"
     stroke-width="0.2"
     id="path13"
     style="fill:none;stroke-linecap:round;stroke-linejoin:round" />
  <path
     d="M 315.1,314.9 H 349 c 0.1,0 0,-0.1 0,0 v 2.9 c 0,0.055 0.045,0.1 0.1,0.1 h 18 c 0.055,0 0.1,-0.045 0.1,-0.1 v -2.9 c 0,-0.1 -0.1,0 0,0 H 385 c 0.1,0 0,-0.1 0,0 v 2.9 c 0,0.055 0.045,0.1 0.1,0.1 h 18 c 0.055,0 0.1,-0.045 0.1,-0.1 v -2.9 c 0,-0.1 -0.1,0 0,0 H 421 c 0.1,0 0,-0.1 0,0 v 2.9 c 0,0.055 0.045,0.1 0.1,0.1 h 18 c 0.055,0 0.1,-0.045 0.1,-0.1 v -2.9 c 0,-0.1 -0.1,0 0,0 H 457 c 0.1,0 0,-0.1 0,0 v 2.9 c 0,0.055 0.045,0.1 0.1,0.1 h 18 c 0.055,0 0.1,-0.045 0.1,-0.1 v -2.9 c 0,-0.1 -0.1,0 0,0 h 33.9 c 0.055,0 0.1,-0.045 0.1,-0.1 v -19.9 c 0,-0.1 -0.1,0 0,0 h 2.9 c 0.055,0 0.1,-0.045 0.1,-0.1 v -18 c 0,-0.055 -0.045,-0.1 -0.1,-0.1 h -2.9 c -0.1,0 0,0.1 0,0 v -17.8 c 0,-0.1 -0.1,0 0,0 h 2.9 c 0.055,0 0.1,-0.045 0.1,-0.1 v -18 c 0,-0.055 -0.045,-0.1 -0.1,-0.1 h -2.9 c -0.1,0 0,0.1 0,0 v -19.9 -3 c 0,-0.055 -0.045,-0.1 -0.1,-0.1 h -34 c -0.055,0 -0.1,0.045 -0.1,0.1 v 2.9 c 0,0.1 0.1,0 0,0 h -17.8 c -0.1,0 0,0.1 0,0 v -2.9 c 0,-0.055 -0.045,-0.1 -0.1,-0.1 h -18 c -0.055,0 -0.1,0.045 -0.1,0.1 v 2.9 c 0,0.1 0.1,0 0,0 h -17.8 c -0.1,0 0,0.1 0,0 v -2.9 c 0,-0.055 -0.045,-0.1 -0.1,-0.1 h -18 c -0.055,0 -0.1,0.045 -0.1,0.1 v 2.9 c 0,0.1 0.1,0 0,0 h -17.8 c -0.1,0 0,0.1 0,0 v -2.9 c 0,-0.055 -0.045,-0.1 -0.1,-0.1 h -18 c -0.055,0 -0.1,0.045 -0.1,0.1 v 2.9 c 0,0.1 0.1,0 0,0 h -17.8 c -0.1,0 0,0.1 0,0 v -2.9 c 0,-0.055 -0.045,-0.1 -0.1,-0.1 h -34 c -0.055,0 -0.1,0.045 -0.1,0.1 v 3 19.9 c 0,0.1 0.1,0 0,0 h -2.9 c -0.055,0 -0.1,0.045 -0.1,0.1 v 18 c 0,0.055 0.045,0.1 0.1,0.1 h 2.9 c 0.1,0 0,-0.1 0,0 v 17.8 c 0,0.1 0.1,0 0,0 h -2.9 c -0.055,0 -0.1,0.045 -0.1,0.1 v 18 c 0,0.055 0.045,0.1 0.1,0.1 h 2.9 c 0.1,0 0,-0.1 0,0 v 19.9 c 0,0.055 0.045,0.1 0.1,0.1"
     stroke="#000000"
     stroke-width="0.2"
     id="path23"
     style="fill:none;stroke-linecap:round;stroke-linejoin:round" />
  <path
     d="m 13.4,314.9 h 29.9 c 0.1,0 0,-0.1 0,0 v 2.9 c 0,0.055 0.045,0.1 0.1,0.1 h 18 c 0.055,0 0.1,-0.045 0.1,-0.1 v -2.9 c 0,-0.1 -0.1,0 0,0 h 17.8 c 0.1,0 0,-0.1 0,0 v 2.9 c 0,0.055 0.045,0.1 0.1,0.1 h 18 c 0.055,0 0.1,-0.045 0.1,-0.1 v -2.9 c 0,-0.1 -0.1,0 0,0 h 17.8 c 0.1,0 0,-0.1 0,0 v 2.9 c 0,0.055 0.045,0.1 0.1,0.1 h 18 c 0.055,0 0.1,-0.045 0.1,-0.1 v -2.9 c 0,-0.1 -0.1,0 0,0 h 17.8 c 0.1,0 0,-0.1 0,0 v 2.9 c 0,0.055 0.045,0.1 0.1,0.1 h 18 c 0.055,0 0.1,-0.045 0.1,-0.1 v -2.9 c 0,-0.1 -0.1,0 0,0 h 17.8 c 0.1,0 0,-0.1 0,0 v 2.9 c 0,0.055 0.045,0.1 0.1,0.1 h 18 c 0.055,0 0.1,-0.045 0.1,-0.1 v -2.9 c 0,-0.1 -0.1,0 0,0 h 17.8 c 0.1,0 0,-0.1 0,0 v 2.9 c 0,0.055 0.045,0.1 0.1,0.1 h 18 c 0.055,0 0.1,-0.045 0.1,-0.1 v -2.9 c 0,-0.1 -0.1,0 0,0 h 17.8 c 0.1,0 0,-0.1 0,0 v 2.9 c 0,0.055 0.045,0.1 0.1,0.1 h 18 c 0.055,0 0.1,-0.045 0.1,-0.1 v -2.9 c 0,-0.1 -0.1,0 0,0 h 29.9 3 c 0.055,0 0.1,-0.045 0.1,-0.1 v -20 c 0,-0.055 -0.045,-0.1 -0.1,-0.1 h -2.9 c -0.1,0 0,0.1 0,0 v -17.8 c 0,-0.1 -0.1,0 0,0 h 2.9 c 0.055,0 0.1,-0.045 0.1,-0.1 v -18 c 0,-0.055 -0.045,-0.1 -0.1,-0.1 h -2.9 c -0.1,0 0,0.1 0,0 v -17.8 c 0,-0.1 -0.1,0 0,0 h 2.9 c 0.055,0 0.1,-0.045 0.1,-0.1 v -20 -3 c 0,-0.055 -0.045,-0.1 -0.1,-0.1 h -3 -30 c -0.055,0 -0.1,0.045 -0.1,0.1 v 2.9 c 0,0.1 0.1,0 0,0 h -17.8 c -0.1,0 0,0.1 0,0 v -2.9 c 0,-0.055 -0.045,-0.1 -0.1,-0.1 h -18 c -0.055,0 -0.1,0.045 -0.1,0.1 v 2.9 c 0,0.1 0.1,0 0,0 h -17.8 c -0.1,0 0,0.1 0,0 v -2.9 c 0,-0.055 -0.045,-0.1 -0.1,-0.1 h -18 c -0.055,0 -0.1,0.045 -0.1,0.1 v 2.9 c 0,0.1 0.1,0 0,0 h -17.8 c -0.1,0 0,0.1 0,0 v -2.9 c 0,-0.055 -0.045,-0.1 -0.1,-0.1 h -18 c -0.055,0 -0.1,0.045 -0.1,0.1 v 2.9 c 0,0.1 0.1,0 0,0 h -17.8 c -0.1,0 0,0.1 0,0 v -2.9 c 0,-0.055 -0.045,-0.1 -0.1,-0.1 h -18 c -0.055,0 -0.1,0.045 -0.1,0.1 v 2.9 c 0,0.1 0.1,0 0,0 h -17.8 c -0.1,0 0,0.1 0,0 v -2.9 c 0,-0.055 -0.045,-0.1 -0.1,-0.1 h -18 c -0.055,0 -0.1,0.045 -0.1,0.1 v 2.9 c 0,0.1 0.1,0 0,0 H 79.5 c -0.1,0 0,0.1 0,0 v -2.9 c 0,-0.055 -0.045,-0.1 -0.1,-0.1 h -18 c -0.055,0 -0.1,0.045 -0.1,0.1 v 2.9 c 0,0.1 0.1,0 0,0 H 43.5 c -0.1,0 0,0.1 0,0 v -2.9 c 0,-0.055 -0.045,-0.1 -0.1,-0.1 h -30 -3 c -0.055,0 -0.1,0.045 -0.1,0.1 v 3 20 c 0,0.055 0.045,0.1 0.1,0.1 h 2.9 c 0.1,0 0,-0.1 0,0 v 17.8 c 0,0.1 0.1,0 0,0 h -2.9 c -0.055,0 -0.1,0.045 -0.1,0.1 v 18 c 0,0.055 0.045,0.1 0.1,0.1 h 2.9 c 0.1,0 0,-0.1 0,0 v 17.8 c 0,0.1 0.1,0 0,0 h -2.9 c -0.055,0 -0.1,0.045 -0.1,0.1 v 20 c 0,0.055 0.045,0.1 0.1,0.1 h 3"
     stroke="#000000"
     stroke-width="0.2"
     id="path28"
     style="fill:none;stroke-linecap:round;stroke-linejoin:round" />
  <path
     d="m 13.4,213.2 h 29.9 c 0.1,0 0,-0.1 0,0 v 2.9 c 0,0.055 0.045,0.1 0.1,0.1 h 18 c 0.055,0 0.1,-0.045 0.1,-0.1 v -2.9 c 0,-0.1 -0.1,0 0,0 h 17.8 c 0.1,0 0,-0.1 0,0 v 2.9 c 0,0.055 0.045,0.1 0.1,0.1 h 18 c 0.055,0 0.1,-0.045 0.1,-0.1 v -2.9 c 0,-0.1 -0.1,0 0,0 h 17.8 c 0.1,0 0,-0.1 0,0 v 2.9 c 0,0.055 0.045,0.1 0.1,0.1 h 18 c 0.055,0 0.1,-0.045 0.1,-0.1 v -2.9 c 0,-0.1 -0.1,0 0,0 h 17.8 c 0.1,0 0,-0.1 0,0 v 2.9 c 0,0.055 0.045,0.1 0.1,0.1 h 18 c 0.055,0 0.1,-0.045 0.1,-0.1 v -2.9 c 0,-0.1 -0.1,0 0,0 h 17.8 c 0.1,0 0,-0.1 0,0 v 2.9 c 0,0.055 0.045,0.1 0.1,0.1 h 18 c 0.055,0 0.1,-0.045 0.1,-0.1 v -2.9 c 0,-0.1 -0.1,0 0,0 h 17.8 c 0.1,0 0,-0.1 0,0 v 2.9 c 0,0.055 0.045,0.1 0.1,0.1 h 18 c 0.055,0 0.1,-0.045 0.1,-0.1 v -2.9 c 0,-0.1 -0.1,0 0,0 h 17.8 c 0.1,0 0,-0.1 0,0 v 2.9 c 0,0.055 0.045,0.1 0.1,0.1 h 18 c 0.055,0 0.1,-0.045 0.1,-0.1 v -2.9 c 0,-0.1 -0.1,0 0,0 h 29.9 c 0.055,0 0.1,-0.045 0.1,-0.1 v -33.9 c 0,-0.1 -0.1,0 0,0 h 2.9 c 0.055,0 0.1,-0.045 0.1,-0.1 v -18 c 0,-0.055 -0.045,-0.1 -0.1,-0.1 h -2.9 c -0.1,0 0,0.1 0,0 v -17.8 c 0,-0.1 -0.1,0 0,0 h 2.9 c 0.055,0 0.1,-0.045 0.1,-0.1 v -18 c 0,-0.055 -0.045,-0.1 -0.1,-0.1 h -2.9 c -0.1,0 0,0.1 0,0 v -17.8 c 0,-0.1 -0.1,0 0,0 h 2.9 c 0.055,0 0.1,-0.045 0.1,-0.1 v -18 c 0,-0.055 -0.045,-0.1 -0.1,-0.1 h -2.9 c -0.1,0 0,0.1 0,0 V 71.2 c 0,-0.1 -0.1,0 0,0 h 2.9 c 0.055,0 0.1,-0.045 0.1,-0.1 v -18 c 0,-0.055 -0.045,-0.1 -0.1,-0.1 h -2.9 c -0.1,0 0,0.1 0,0 V 19.1 c 0,-0.055 -0.045,-0.1 -0.1,-0.1 h -29.9 c -0.1,0 0,0.1 0,0 v -2.9 c 0,-0.055 -0.045,-0.1 -0.1,-0.1 h -18 c -0.055,0 -0.1,0.045 -0.1,0.1 V 19 c 0,0.1 0.1,0 0,0 h -17.8 c -0.1,0 0,0.1 0,0 v -2.9 c 0,-0.055 -0.045,-0.1 -0.1,-0.1 h -18 c -0.055,0 -0.1,0.045 -0.1,0.1 V 19 c 0,0.1 0.1,0 0,0 h -17.8 c -0.1,0 0,0.1 0,0 v -2.9 c 0,-0.055 -0.045,-0.1 -0.1,-0.1 h -18 c -0.055,0 -0.1,0.045 -0.1,0.1 V 19 c 0,0.1 0.1,0 0,0 h -17.8 c -0.1,0 0,0.1 0,0 v -2.9 c 0,-0.055 -0.045,-0.1 -0.1,-0.1 h -18 c -0.055,0 -0.1,0.045 -0.1,0.1 V 19 c 0,0.1 0.1,0 0,0 h -17.8 c -0.1,0 0,0.1 0,0 v -2.9 c 0,-0.055 -0.045,-0.1 -0.1,-0.1 h -18 c -0.055,0 -0.1,0.045 -0.1,0.1 V 19 c 0,0.1 0.1,0 0,0 H 97.5 c -0.1,0 0,0.1 0,0 V 16.1 C 97.5,16.045 97.455,16 97.4,16 h -18 c -0.055,0 -0.1,0.045 -0.1,0.1 V 19 c 0,0.1 0.1,0 0,0 H 61.5 c -0.1,0 0,0.1 0,0 V 16.1 C 61.5,16.045 61.455,16 61.4,16 h -18 c -0.055,0 -0.1,0.045 -0.1,0.1 V 19 c 0,0.1 0.1,0 0,0 H 13.4 c -0.055,0 -0.1,0.045 -0.1,0.1 V 53 c 0,0.1 0.1,0 0,0 h -2.9 c -0.055,0 -0.1,0.045 -0.1,0.1 v 18 c 0,0.055 0.045,0.1 0.1,0.1 h 2.9 c 0.1,0 0,-0.1 0,0 V 89 c 0,0.1 0.1,0 0,0 h -2.9 c -0.055,0 -0.1,0.045 -0.1,0.1 v 18 c 0,0.055 0.045,0.1 0.1,0.1 h 2.9 c 0.1,0 0,-0.1 0,0 V 125 c 0,0.1 0.1,0 0,0 h -2.9 c -0.055,0 -0.1,0.045 -0.1,0.1 v 18 c 0,0.055 0.045,0.1 0.1,0.1 h 2.9 c 0.1,0 0,-0.1 0,0 V 161 c 0,0.1 0.1,0 0,0 h -2.9 c -0.055,0 -0.1,0.045 -0.1,0.1 v 18 c 0,0.055 0.045,0.1 0.1,0.1 h 2.9 c 0.1,0 0,-0.1 0,0 v 33.9 c 0,0.055 0.045,0.1 0.1,0.1"
     stroke="#000000"
     stroke-width="0.2"
     id="path33"
     style="fill:none;stroke-linecap:round;stroke-linejoin:round" />
  <g
     id="g1060"
     transform="rotate(180,391.97042,476.07755)">
    <path
       d="m 170.00979,628.75013 h 29.9 c 0.1,0 0,-0.1 0,0 v 2.9 c 0,0.055 0.045,0.1 0.1,0.1 h 18 c 0.055,0 0.1,-0.045 0.1,-0.1 v -2.9 c 0,-0.1 -0.1,0 0,0 h 17.8 c 0.1,0 0,-0.1 0,0 v 2.9 c 0,0.055 0.045,0.1 0.1,0.1 h 18 c 0.055,0 0.1,-0.045 0.1,-0.1 v -2.9 c 0,-0.1 -0.1,0 0,0 h 17.8 c 0.1,0 0,-0.1 0,0 v 2.9 c 0,0.055 0.045,0.1 0.1,0.1 h 18 c 0.055,0 0.1,-0.045 0.1,-0.1 v -2.9 c 0,-0.1 -0.1,0 0,0 h 17.8 c 0.1,0 0,-0.1 0,0 v 2.9 c 0,0.055 0.045,0.1 0.1,0.1 h 18 c 0.055,0 0.1,-0.045 0.1,-0.1 v -2.9 c 0,-0.1 -0.1,0 0,0 h 17.8 c 0.1,0 0,-0.1 0,0 v 2.9 c 0,0.055 0.045,0.1 0.1,0.1 h 18 c 0.055,0 0.1,-0.045 0.1,-0.1 v -2.9 c 0,-0.1 -0.1,0 0,0 h 17.8 c 0.1,0 0,-0.1 0,0 v 2.9 c 0,0.055 0.045,0.1 0.1,0.1 h 18 c 0.055,0 0.1,-0.045 0.1,-0.1 v -2.9 c 0,-0.1 -0.1,0 0,0 h 17.8 c 0.1,0 0,-0.1 0,0 v 2.9 c 0,0.055 0.045,0.1 0.1,0.1 h 18 c 0.055,0 0.1,-0.045 0.1,-0.1 v -2.9 c 0,-0.1 -0.1,0 0,0 h 29.9 3 c 0.055,0 0.1,-0.045 0.1,-0.1 v -20 c 0,-0.055 -0.045,-0.1 -0.1,-0.1 h -2.9 c -0.1,0 0,0.1 0,0 v -17.8 c 0,-0.1 -0.1,0 0,0 h 2.9 c 0.055,0 0.1,-0.045 0.1,-0.1 v -18 c 0,-0.055 -0.045,-0.1 -0.1,-0.1 h -2.9 c -0.1,0 0,0.1 0,0 v -17.8 c 0,-0.1 -0.1,0 0,0 h 2.9 c 0.055,0 0.1,-0.045 0.1,-0.1 v -20 -3 c -64.50509,11.00947 -184.44415,50.42936 -300.2,97 0,0.055 0.045,0.1 0.1,0.1 h 3"
       stroke="#000000"
       stroke-width="0.2"
       id="path28-6"
       sodipodi:nodetypes="csssssssssssssssssssssssssssssssssssssssssssssssssssssssscsssssssssssssssssscccsc"
       style="fill:none;stroke-linecap:round;stroke-linejoin:round" />
    <path
       d="m 466.999,531.61816 -34.62769,11.34809 c -0.0523,0.0171 -0.0813,0.0735 -0.0644,0.12589 l 0.89117,2.75968 c 0.0307,0.0952 0.0951,-0.0307 0,0 l -16.93875,5.46983 c -0.0952,0.0308 0.0307,0.0952 0,0 l -0.89115,-2.75967 c -0.0169,-0.0523 -0.0735,-0.0815 -0.1259,-0.0644 l -17.12906,5.53128 c -0.0524,0.017 -0.0813,0.0735 -0.0644,0.1259 l 0.89115,2.75969 c 0.0307,0.0952 0.0952,-0.0307 0,0 l -16.93873,5.46982 c -0.0951,0.0308 0.0307,0.0952 0,0 l -0.89115,-2.75968 c -0.0169,-0.0523 -0.0735,-0.0814 -0.1259,-0.0644 l -17.12906,5.5313 c -0.0524,0.0171 -0.0813,0.0735 -0.0644,0.12589 l 0.89115,2.75967 c 0.0307,0.0951 0.0951,-0.0307 0,0 l -16.93874,5.46984 c -0.0951,0.0307 0.0307,0.0952 0,0 l -0.89115,-2.75969 c -0.0169,-0.0523 -0.0735,-0.0814 -0.12589,-0.0644 l -17.12907,5.53129 c -0.0523,0.017 -0.0813,0.0735 -0.0644,0.12587 l 0.89115,2.75969 c 0.0307,0.0951 0.0951,-0.0307 0,0 l -16.93875,5.46984 c -0.0952,0.0307 0.0308,0.0952 0,0 l -0.89114,-2.75968 c -0.017,-0.0523 -0.0736,-0.0814 -0.12589,-0.0644 l -17.12908,5.53129 c -0.0523,0.0169 -0.0814,0.0735 -0.0644,0.1259 l 0.89115,2.75968 c 0.0308,0.0951 0.0951,-0.0308 0,0 l -16.93873,5.46983 c -0.0952,0.0308 0.0308,0.0951 0,0 l -0.89115,-2.75967 c -0.0171,-0.0524 -0.0735,-0.0814 -0.12589,-0.0644 l -17.12907,5.53129 c -0.0523,0.017 -0.0814,0.0735 -0.0644,0.12589 l 0.89116,2.75968 c 0.0308,0.0951 0.0952,-0.0308 0,0 l -16.93874,5.46983 c -0.0952,0.0308 0.0308,0.0951 0,0 l -0.89116,-2.75968 c -0.017,-0.0523 -0.0736,-0.0814 -0.12589,-0.0644 l -17.12906,5.53128 c -0.0524,0.0171 -0.23563,-0.51287 -0.21869,-0.46042 l 0.89115,2.75969 c 0.0307,0.0951 0.0951,-0.0307 0,0 l -16.93873,5.46981 c -0.0951,0.0307 0.0307,0.0951 0,0 l -0.89117,-2.75968 c -0.0169,-0.0523 -0.0738,-0.082 -0.12588,-0.0644 l -42.62015,14.40314"
       stroke="#000000"
       stroke-width="0.2"
       id="path28-0-4"
       sodipodi:nodetypes="cssssssssssssssssssssssssssssssssssssssssssssssssssssssssc"
       style="fill:none;stroke-linecap:round;stroke-linejoin:round" />
  </g>
  <g
     id="g1081">
    <path
       d="m 357.1,213 h -8.9 c -0.1,0 0,0.1 0,0 v -2.8 c 0,-0.1 -0.1,0 0,0 H 366 c 0.1,0 0,-0.1 0,0 v 2.8 c 0,0.1 0.1,0 0,0 z"
       stroke="#0000ff"
       stroke-width="0.2"
       id="path36"
       style="fill:none;stroke-linecap:round;stroke-linejoin:round" />
    <path
       d="m 393.1,213 h -8.9 c -0.1,0 0,0.1 0,0 v -2.8 c 0,-0.1 -0.1,0 0,0 H 402 c 0.1,0 0,-0.1 0,0 v 2.8 c 0,0.1 0.1,0 0,0 z"
       stroke="#0000ff"
       stroke-width="0.2"
       id="path38"
       style="fill:none;stroke-linecap:round;stroke-linejoin:round" />
    <path
       d="m 429.1,213 h -8.9 c -0.1,0 0,0.1 0,0 v -2.8 c 0,-0.1 -0.1,0 0,0 H 438 c 0.1,0 0,-0.1 0,0 v 2.8 c 0,0.1 0.1,0 0,0 z"
       stroke="#0000ff"
       stroke-width="0.2"
       id="path40"
       style="fill:none;stroke-linecap:round;stroke-linejoin:round" />
    <path
       d="m 465.1,213 h -8.9 c -0.1,0 0,0.1 0,0 v -2.8 c 0,-0.1 -0.1,0 0,0 H 474 c 0.1,0 0,-0.1 0,0 v 2.8 c 0,0.1 0.1,0 0,0 z"
       stroke="#0000ff"
       stroke-width="0.2"
       id="path42"
       style="fill:none;stroke-linecap:round;stroke-linejoin:round" />
    <path
       d="m 501.1,213 h -8.9 c -0.1,0 0,0.1 0,0 v -2.8 c 0,-0.1 -0.1,0 0,0 H 510 c 0.1,0 0,-0.1 0,0 v 2.8 c 0,0.1 0.1,0 0,0 z"
       stroke="#0000ff"
       stroke-width="0.2"
       id="path44"
       style="fill:none;stroke-linecap:round;stroke-linejoin:round" />
    <path
       d="m 537.1,213 h -8.9 c -0.1,0 0,0.1 0,0 v -2.8 c 0,-0.1 -0.1,0 0,0 H 546 c 0.1,0 0,-0.1 0,0 v 2.8 c 0,0.1 0.1,0 0,0 z"
       stroke="#0000ff"
       stroke-width="0.2"
       id="path46"
       style="fill:none;stroke-linecap:round;stroke-linejoin:round" />
    <path
       d="m 573.1,213 h -8.9 c -0.1,0 0,0.1 0,0 v -2.8 c 0,-0.1 -0.1,0 0,0 H 582 c 0.1,0 0,-0.1 0,0 v 2.8 c 0,0.1 0.1,0 0,0 z"
       stroke="#0000ff"
       stroke-width="0.2"
       id="path48"
       style="fill:none;stroke-linecap:round;stroke-linejoin:round" />
    <path
       d="m 318.1,216.2 h 294 6 c 0.055,0 0.1,-0.045 0.1,-0.1 v -6 -194 -6 c 0,-0.055 -0.045,-0.1 -0.1,-0.1 h -6 -294 -6 c -0.055,0 -0.1,0.045 -0.1,0.1 v 6 194 6 c 0,0.055 0.045,0.1 0.1,0.1 h 6"
       stroke="#000000"
       stroke-width="0.2"
       id="path52"
       style="fill:none;stroke-linecap:round;stroke-linejoin:round" />
    <path
       d="m 615,167.1 v 8.9 c 0,0.1 0.1,0 0,0 h -2.8 c -0.1,0 0,0.1 0,0 v -17.8 c 0,-0.1 -0.1,0 0,0 h 2.8 c 0.1,0 0,-0.1 0,0 z"
       stroke="#0000ff"
       stroke-width="0.2"
       id="path54"
       style="fill:none;stroke-linecap:round;stroke-linejoin:round" />
    <path
       d="m 615,131.1 v 8.9 c 0,0.1 0.1,0 0,0 h -2.8 c -0.1,0 0,0.1 0,0 v -17.8 c 0,-0.1 -0.1,0 0,0 h 2.8 c 0.1,0 0,-0.1 0,0 z"
       stroke="#0000ff"
       stroke-width="0.2"
       id="path56"
       style="fill:none;stroke-linecap:round;stroke-linejoin:round" />
    <path
       d="m 615,95.1 v 8.9 c 0,0.1 0.1,0 0,0 h -2.8 c -0.1,0 0,0.1 0,0 V 86.2 c 0,-0.1 -0.1,0 0,0 h 2.8 c 0.1,0 0,-0.1 0,0 z"
       stroke="#0000ff"
       stroke-width="0.2"
       id="path58"
       style="fill:none;stroke-linecap:round;stroke-linejoin:round" />
    <path
       d="M 615,59.1 V 68 c 0,0.1 0.1,0 0,0 h -2.8 c -0.1,0 0,0.1 0,0 V 50.2 c 0,-0.1 -0.1,0 0,0 h 2.8 c 0.1,0 0,-0.1 0,0 z"
       stroke="#0000ff"
       stroke-width="0.2"
       id="path60"
       style="fill:none;stroke-linecap:round;stroke-linejoin:round" />
    <path
       d="m 573.1,13.2 h 8.9 c 0.1,0 0,-0.1 0,0 V 16 c 0,0.1 0.1,0 0,0 h -17.8 c -0.1,0 0,0.1 0,0 v -2.8 c 0,-0.1 -0.1,0 0,0 z"
       stroke="#0000ff"
       stroke-width="0.2"
       id="path62"
       style="fill:none;stroke-linecap:round;stroke-linejoin:round" />
    <path
       d="m 537.1,13.2 h 8.9 c 0.1,0 0,-0.1 0,0 V 16 c 0,0.1 0.1,0 0,0 h -17.8 c -0.1,0 0,0.1 0,0 v -2.8 c 0,-0.1 -0.1,0 0,0 z"
       stroke="#0000ff"
       stroke-width="0.2"
       id="path64"
       style="fill:none;stroke-linecap:round;stroke-linejoin:round" />
    <path
       d="m 501.1,13.2 h 8.9 c 0.1,0 0,-0.1 0,0 V 16 c 0,0.1 0.1,0 0,0 h -17.8 c -0.1,0 0,0.1 0,0 v -2.8 c 0,-0.1 -0.1,0 0,0 z"
       stroke="#0000ff"
       stroke-width="0.2"
       id="path66"
       style="fill:none;stroke-linecap:round;stroke-linejoin:round" />
    <path
       d="m 465.1,13.2 h 8.9 c 0.1,0 0,-0.1 0,0 V 16 c 0,0.1 0.1,0 0,0 h -17.8 c -0.1,0 0,0.1 0,0 v -2.8 c 0,-0.1 -0.1,0 0,0 z"
       stroke="#0000ff"
       stroke-width="0.2"
       id="path68"
       style="fill:none;stroke-linecap:round;stroke-linejoin:round" />
    <path
       d="m 429.1,13.2 h 8.9 c 0.1,0 0,-0.1 0,0 V 16 c 0,0.1 0.1,0 0,0 h -17.8 c -0.1,0 0,0.1 0,0 v -2.8 c 0,-0.1 -0.1,0 0,0 z"
       stroke="#0000ff"
       stroke-width="0.2"
       id="path70"
       style="fill:none;stroke-linecap:round;stroke-linejoin:round" />
    <path
       d="m 393.1,13.2 h 8.9 c 0.1,0 0,-0.1 0,0 V 16 c 0,0.1 0.1,0 0,0 h -17.8 c -0.1,0 0,0.1 0,0 v -2.8 c 0,-0.1 -0.1,0 0,0 z"
       stroke="#0000ff"
       stroke-width="0.2"
       id="path72"
       style="fill:none;stroke-linecap:round;stroke-linejoin:round" />
    <path
       d="m 357.1,13.2 h 8.9 c 0.1,0 0,-0.1 0,0 V 16 c 0,0.1 0.1,0 0,0 h -17.8 c -0.1,0 0,0.1 0,0 v -2.8 c 0,-0.1 -0.1,0 0,0 z"
       stroke="#0000ff"
       stroke-width="0.2"
       id="path74"
       style="fill:none;stroke-linecap:round;stroke-linejoin:round" />
  </g>
</svg>
